<svg width="216" height="220" viewBox="0 0 216 220" fill="none" xmlns="http://www.w3.org/2000/svg">
<g opacity="0.8" clip-path="url(#clip0_2234_9590)">
<path d="M34.0829 158.335C35.2502 159.232 35.4507 160.783 34.5507 161.954C33.6506 163.126 32.1002 163.331 30.9329 162.434C29.7656 161.537 29.5651 159.986 30.4652 158.815C31.3652 157.644 33.0129 157.513 34.0829 158.335Z" fill="#FFCF2D"/>
<path d="M47.5082 140.864C48.6755 141.761 48.876 143.312 47.9759 144.484C47.0759 145.655 45.5255 145.86 44.3582 144.963C43.1909 144.066 42.9904 142.515 43.8905 141.344C44.7155 140.27 46.4382 140.042 47.5082 140.864Z" fill="#FFCF2D"/>
<path d="M60.8583 123.492C62.0256 124.389 62.2261 125.94 61.326 127.112C60.426 128.283 58.8756 128.488 57.7083 127.591C56.541 126.694 56.3405 125.143 57.2406 123.972C58.1406 122.801 59.7883 122.67 60.8583 123.492Z" fill="#FFCF2D"/>
<path d="M74.2836 106.022C75.4509 106.92 75.6514 108.471 74.7513 109.642C73.8513 110.813 72.3008 111.019 71.1336 110.122C69.9663 109.225 69.7658 107.673 70.6659 106.502C71.5659 105.331 73.2136 105.2 74.2836 106.022Z" fill="#FFCF2D"/>
<path d="M87.7089 88.5528C88.8762 89.4498 89.0766 91.001 88.1766 92.1721C87.2766 93.3433 85.7261 93.5489 84.5589 92.6518C83.3916 91.7548 83.1911 90.2037 84.0911 89.0325C84.9162 87.9589 86.6389 87.7305 87.7089 88.5528Z" fill="#FFCF2D"/>
<path d="M101.134 71.0831C102.301 71.9801 102.502 73.5312 101.602 74.7024C100.702 75.8736 99.1514 76.0792 97.9841 75.1821C96.8169 74.2851 96.6164 72.7339 97.5164 71.5628C98.4165 70.3916 100.064 70.2608 101.134 71.0831Z" fill="#FFCF2D"/>
<path d="M114.484 53.711C115.652 54.608 115.852 56.1592 114.952 57.3303C114.052 58.5015 112.502 58.7071 111.334 57.81C110.167 56.913 109.967 55.3619 110.867 54.1907C111.767 53.0195 113.414 52.8887 114.484 53.711Z" fill="#FFCF2D"/>
<path d="M127.91 36.2413C129.077 37.1383 129.277 38.6894 128.377 39.8606C127.477 41.0318 125.927 41.2374 124.76 40.3403C123.592 39.4433 123.392 37.8921 124.292 36.721C125.192 35.5498 126.84 35.419 127.91 36.2413Z" fill="#FFCF2D"/>
<path d="M141.335 18.7715C142.502 19.6686 142.703 21.2197 141.803 22.3909C140.903 23.562 139.352 23.7676 138.185 22.8706C137.018 21.9736 136.817 20.4224 137.717 19.2513C138.542 18.1777 140.265 17.9493 141.335 18.7715Z" fill="#FFCF2D"/>
<path d="M48.5766 169.473C49.7439 170.37 49.9443 171.921 49.0443 173.092C48.1443 174.263 46.5938 174.469 45.4265 173.572C44.2593 172.675 44.0588 171.124 44.9588 169.952C45.8588 168.781 47.4093 168.576 48.5766 169.473Z" fill="#FFCF2D"/>
<path d="M62.0019 152.003C63.1692 152.9 63.3696 154.451 62.4696 155.622C61.5696 156.793 60.0191 156.999 58.8518 156.102C57.6845 155.205 57.4841 153.654 58.3841 152.483C59.2091 151.409 60.8346 151.106 62.0019 152.003Z" fill="#FFCF2D"/>
<path d="M75.352 134.631C76.5193 135.528 76.7197 137.079 75.8197 138.25C74.9197 139.421 73.3692 139.627 72.2019 138.73C71.0346 137.833 70.8342 136.282 71.7342 135.111C72.6342 133.939 74.1847 133.734 75.352 134.631Z" fill="#FFCF2D"/>
<path d="M88.7773 117.161C89.9446 118.058 90.145 119.609 89.245 120.781C88.345 121.952 86.7945 122.157 85.6272 121.26C84.4599 120.363 84.2595 118.812 85.1595 117.641C86.0595 116.47 87.61 116.264 88.7773 117.161Z" fill="#FFCF2D"/>
<path d="M102.203 99.6905C103.37 100.588 103.57 102.139 102.67 103.31C101.77 104.481 100.22 104.687 99.0525 103.79C97.8852 102.893 97.6848 101.341 98.5848 100.17C99.4098 99.0966 101.035 98.7934 102.203 99.6905Z" fill="#FFCF2D"/>
<path d="M115.628 82.2208C116.795 83.1178 116.996 84.6689 116.096 85.8401C115.196 87.0113 113.645 87.2169 112.478 86.3198C111.311 85.4228 111.11 83.8716 112.01 82.7005C112.91 81.5293 114.461 81.3237 115.628 82.2208Z" fill="#FFCF2D"/>
<path d="M128.978 64.8487C130.145 65.7457 130.346 67.2969 129.446 68.468C128.546 69.6392 126.995 69.8448 125.828 68.9477C124.661 68.0507 124.46 66.4996 125.36 65.3284C126.26 64.1572 127.811 63.9517 128.978 64.8487Z" fill="#FFCF2D"/>
<path d="M142.403 47.3789C143.571 48.276 143.771 49.8271 142.871 50.9983C141.971 52.1695 140.42 52.3751 139.253 51.478C138.086 50.581 137.885 49.0298 138.785 47.8587C139.685 46.6875 141.236 46.4819 142.403 47.3789Z" fill="#FFCF2D"/>
<path d="M155.829 29.9092C156.996 30.8063 157.196 32.3574 156.296 33.5286C155.396 34.6997 153.846 34.9053 152.678 34.0083C151.511 33.1113 151.311 31.5601 152.211 30.3889C153.036 29.3154 154.661 29.0122 155.829 29.9092Z" fill="#FFCF2D"/>
<path d="M5.1928 136.133C6.36008 137.03 6.56053 138.581 5.66052 139.752C4.7605 140.923 3.21003 141.129 2.04275 140.232C0.875462 139.335 0.675012 137.784 1.57503 136.613C2.47504 135.441 4.02552 135.236 5.1928 136.133Z" fill="#FFCF2D"/>
<path d="M18.6181 118.663C19.7854 119.56 19.9858 121.111 19.0858 122.282C18.1858 123.454 16.6353 123.659 15.468 122.762C14.3008 121.865 14.1003 120.314 15.0003 119.143C15.8253 118.069 17.4508 117.766 18.6181 118.663Z" fill="#FFCF2D"/>
<path d="M31.9682 101.291C33.1355 102.188 33.3359 103.739 32.4359 104.91C31.5359 106.082 29.9854 106.287 28.8181 105.39C27.6509 104.493 27.5254 102.844 28.3504 101.771C29.2504 100.6 30.8009 100.394 31.9682 101.291Z" fill="#FFCF2D"/>
<path d="M45.3935 83.8213C46.5608 84.7184 46.7612 86.2695 45.8612 87.4407C44.9612 88.6118 43.4107 88.8174 42.2434 87.9204C41.0761 87.0234 40.9507 85.3746 41.7757 84.3011C42.6007 83.2275 44.2262 82.9243 45.3935 83.8213Z" fill="#FFCF2D"/>
<path d="M58.8188 66.3516C59.9861 67.2486 60.1865 68.7998 59.2865 69.971C58.3865 71.1421 56.836 71.3477 55.6687 70.4507C54.5014 69.5536 54.301 68.0025 55.201 66.8313C56.026 65.7578 57.6515 65.4546 58.8188 66.3516Z" fill="#FFCF2D"/>
<path d="M72.2441 48.8809C73.4114 49.7779 73.6118 51.3291 72.7118 52.5002C71.8118 53.6714 70.2613 53.877 69.094 52.98C67.9267 52.0829 67.7263 50.5318 68.6263 49.3606C69.5263 48.1895 71.0768 47.9839 72.2441 48.8809Z" fill="#FFCF2D"/>
<path d="M85.5942 31.5088C86.7614 32.4059 86.9619 33.957 86.0619 35.1282C85.1619 36.2993 83.6114 36.5049 82.4441 35.6079C81.2768 34.7109 81.0764 33.1597 81.9764 31.9886C82.8764 30.8174 84.4269 30.6118 85.5942 31.5088Z" fill="#FFCF2D"/>
<path d="M99.0195 14.0391C100.187 14.9361 100.387 16.4873 99.4872 17.6585C98.5872 18.8296 97.0367 19.0352 95.8694 18.1382C94.7021 17.2411 94.5017 15.69 95.4017 14.5188C96.3017 13.3477 97.8522 13.1421 99.0195 14.0391Z" fill="#FFCF2D"/>
<path d="M112.445 -3.4306C113.612 -2.53356 113.812 -0.982429 112.912 0.188728C112.012 1.35988 110.462 1.56548 109.295 0.668445C108.127 -0.22859 107.927 -1.77974 108.827 -2.9509C109.652 -4.02446 111.277 -4.32764 112.445 -3.4306Z" fill="#FFCF2D"/>
<path d="M19.6865 147.272C20.8537 148.169 21.0542 149.72 20.1542 150.891C19.2542 152.062 17.6064 152.193 16.5364 151.371C15.3691 150.474 15.1687 148.922 16.0687 147.751C16.9687 146.58 18.5192 146.374 19.6865 147.272Z" fill="#FFCF2D"/>
<path d="M33.1117 129.801C34.279 130.698 34.4795 132.249 33.5795 133.42C32.6794 134.591 31.129 134.797 29.9617 133.9C28.7944 133.003 28.594 131.452 29.494 130.281C30.319 129.207 31.9445 128.904 33.1117 129.801Z" fill="#FFCF2D"/>
<path d="M46.4618 112.429C47.6291 113.326 47.8296 114.877 46.9296 116.048C46.0295 117.219 44.4791 117.425 43.3118 116.528C42.1445 115.631 41.9441 114.08 42.8441 112.908C43.7441 111.737 45.2946 111.532 46.4618 112.429Z" fill="#FFCF2D"/>
<path d="M59.8871 94.959C61.0544 95.8561 61.2549 97.4072 60.3549 98.5784C59.4548 99.7495 57.9044 99.9551 56.7371 99.0581C55.5698 98.1611 55.3693 96.6099 56.2694 95.4387C57.1694 94.2676 58.7199 94.062 59.8871 94.959Z" fill="#FFCF2D"/>
<path d="M73.3124 77.4893C74.4797 78.3863 74.6802 79.9375 73.7801 81.1086C72.8801 82.2798 71.3297 82.4854 70.1624 81.5884C68.9951 80.6913 68.7946 79.1402 69.6947 77.969C70.5197 76.8955 72.1451 76.5923 73.3124 77.4893Z" fill="#FFCF2D"/>
<path d="M86.7377 60.0196C87.905 60.9166 88.1055 62.4678 87.2054 63.6389C86.3054 64.8101 84.7549 65.0157 83.5877 64.1186C82.4204 63.2216 82.2199 61.6705 83.1199 60.4993C84.02 59.3281 85.5704 59.1225 86.7377 60.0196Z" fill="#FFCF2D"/>
<path d="M100.088 42.6475C101.255 43.5445 101.456 45.0957 100.556 46.2669C99.6555 47.438 98.105 47.6436 96.9378 46.7466C95.7705 45.8495 95.57 44.2984 96.47 43.1272C97.3701 41.9561 98.9205 41.7505 100.088 42.6475Z" fill="#FFCF2D"/>
<path d="M113.513 25.1778C114.68 26.0748 114.881 27.626 113.981 28.7971C113.081 29.9683 111.53 30.1739 110.363 29.2768C109.196 28.3798 108.995 26.8287 109.895 25.6575C110.795 24.4863 112.346 24.2807 113.513 25.1778Z" fill="#FFCF2D"/>
<path d="M126.938 7.70806C128.106 8.6051 128.306 10.1562 127.406 11.3274C126.506 12.4986 124.956 12.7042 123.788 11.8071C122.621 10.9101 122.421 9.35893 123.321 8.18777C124.146 7.11421 125.771 6.81102 126.938 7.70806Z" fill="#FFCF2D"/>
<path d="M62.9736 180.536C64.1408 181.433 64.3413 182.984 63.4413 184.156C62.5413 185.327 60.9908 185.532 59.8235 184.635C58.6562 183.738 58.4558 182.187 59.3558 181.016C60.2558 179.845 61.9036 179.714 62.9736 180.536Z" fill="#FFCF2D"/>
<path d="M76.3989 163.066C77.5661 163.963 77.7666 165.515 76.8666 166.686C75.9665 167.857 74.4161 168.063 73.2488 167.166C72.0815 166.268 71.8811 164.717 72.7811 163.546C73.6061 162.473 75.3288 162.244 76.3989 163.066Z" fill="#FFCF2D"/>
<path d="M89.749 145.694C90.9162 146.591 91.1167 148.143 90.2167 149.314C89.3167 150.485 87.7662 150.69 86.5989 149.793C85.4316 148.896 85.2312 147.345 86.1312 146.174C87.0312 145.003 88.6789 144.872 89.749 145.694Z" fill="#FFCF2D"/>
<path d="M103.174 128.225C104.342 129.122 104.542 130.673 103.642 131.844C102.742 133.015 101.191 133.221 100.024 132.324C98.8569 131.427 98.6565 129.876 99.5565 128.704C100.456 127.533 102.104 127.402 103.174 128.225Z" fill="#FFCF2D"/>
<path d="M116.6 110.755C117.767 111.652 117.967 113.203 117.067 114.374C116.167 115.545 114.617 115.751 113.449 114.854C112.282 113.957 112.082 112.406 112.982 111.235C113.807 110.161 115.53 109.933 116.6 110.755Z" fill="#FFCF2D"/>
<path d="M130.025 93.2842C131.192 94.1813 131.393 95.7324 130.493 96.9036C129.593 98.0747 128.042 98.2803 126.875 97.3833C125.707 96.4863 125.507 94.9351 126.407 93.7639C127.307 92.5928 128.955 92.4619 130.025 93.2842Z" fill="#FFCF2D"/>
<path d="M143.375 75.9121C144.542 76.8092 144.743 78.3603 143.843 79.5315C142.943 80.7027 141.392 80.9083 140.225 80.0112C139.058 79.1142 138.857 77.563 139.757 76.3919C140.657 75.2207 142.305 75.0899 143.375 75.9121Z" fill="#FFCF2D"/>
<path d="M156.8 58.4424C157.968 59.3395 158.168 60.8906 157.268 62.0618C156.368 63.2329 154.817 63.4385 153.65 62.5415C152.483 61.6445 152.282 60.0933 153.182 58.9221C154.082 57.751 155.73 57.6201 156.8 58.4424Z" fill="#FFCF2D"/>
<path d="M170.226 40.9727C171.393 41.8697 171.593 43.4209 170.693 44.592C169.793 45.7632 168.243 45.9688 167.075 45.0718C165.908 44.1747 165.708 42.6236 166.608 41.4524C167.433 40.3789 169.155 40.1504 170.226 40.9727Z" fill="#FFCF2D"/>
<path d="M77.4672 191.674C78.6345 192.571 78.8349 194.122 77.9349 195.293C77.0349 196.464 75.4844 196.67 74.3172 195.773C73.1499 194.876 72.9494 193.325 73.8494 192.154C74.7495 190.982 76.2999 190.777 77.4672 191.674Z" fill="#FFCF2D"/>
<path d="M90.8925 174.204C92.0598 175.101 92.2602 176.652 91.3602 177.823C90.4602 178.995 88.9097 179.2 87.7424 178.303C86.5752 177.406 86.3747 175.855 87.2747 174.684C88.0998 173.61 89.7252 173.307 90.8925 174.204Z" fill="#FFCF2D"/>
<path d="M104.243 156.832C105.41 157.729 105.61 159.28 104.71 160.451C103.81 161.623 102.26 161.828 101.093 160.931C99.9253 160.034 99.7248 158.483 100.625 157.312C101.525 156.141 103.075 155.935 104.243 156.832Z" fill="#FFCF2D"/>
<path d="M118.136 142.982C119.005 141.85 118.796 140.229 117.668 139.362C116.54 138.495 114.92 138.71 114.05 139.842C113.18 140.974 113.39 142.594 114.518 143.461C115.646 144.328 117.266 144.114 118.136 142.982Z" fill="#FFCF2D"/>
<path d="M131.093 121.893C132.26 122.79 132.461 124.341 131.561 125.512C130.661 126.683 129.11 126.889 127.943 125.992C126.776 125.095 126.575 123.544 127.475 122.372C128.3 121.299 129.926 120.996 131.093 121.893Z" fill="#FFCF2D"/>
<path d="M144.518 104.423C145.686 105.32 145.886 106.871 144.986 108.042C144.086 109.213 142.536 109.419 141.368 108.522C140.201 107.625 140.001 106.074 140.901 104.903C141.801 103.731 143.351 103.526 144.518 104.423Z" fill="#FFCF2D"/>
<path d="M157.869 87.0508C159.036 87.9479 159.236 89.499 158.336 90.6702C157.436 91.8413 155.886 92.0469 154.719 91.1499C153.551 90.2529 153.351 88.7017 154.251 87.5305C155.151 86.3594 156.701 86.1538 157.869 87.0508Z" fill="#FFCF2D"/>
<path d="M171.762 73.2004C172.631 72.0685 172.422 70.4481 171.294 69.5811C170.166 68.7141 168.546 68.9289 167.676 70.0608C166.806 71.1927 167.016 72.8132 168.144 73.6802C169.272 74.5471 170.892 74.3324 171.762 73.2004Z" fill="#FFCF2D"/>
<path d="M184.719 52.1114C185.886 53.0084 186.087 54.5595 185.187 55.7307C184.287 56.9019 182.736 57.1075 181.569 56.2104C180.402 55.3134 180.201 53.7622 181.101 52.5911C181.926 51.5175 183.552 51.2143 184.719 52.1114Z" fill="#FFCF2D"/>
<path d="M91.9609 202.813C93.1282 203.71 93.3286 205.261 92.4286 206.432C91.5286 207.603 89.9781 207.809 88.8108 206.912C87.6435 206.015 87.4431 204.463 88.3431 203.292C89.2431 202.121 90.7936 201.916 91.9609 202.813Z" fill="#FFCF2D"/>
<path d="M105.386 185.343C106.553 186.24 106.754 187.791 105.854 188.962C104.954 190.133 103.403 190.339 102.236 189.442C101.069 188.545 100.868 186.994 101.768 185.823C102.593 184.749 104.219 184.446 105.386 185.343Z" fill="#FFCF2D"/>
<path d="M118.736 167.971C119.904 168.868 120.104 170.419 119.204 171.59C118.304 172.761 116.753 172.967 115.586 172.07C114.419 171.173 114.218 169.622 115.118 168.45C116.018 167.279 117.569 167.074 118.736 167.971Z" fill="#FFCF2D"/>
<path d="M132.162 150.501C133.329 151.398 133.529 152.949 132.629 154.12C131.729 155.292 130.179 155.497 129.012 154.6C127.844 153.703 127.644 152.152 128.544 150.981C129.444 149.81 130.994 149.604 132.162 150.501Z" fill="#FFCF2D"/>
<path d="M145.587 133.031C146.754 133.928 146.955 135.479 146.055 136.651C145.155 137.822 143.604 138.027 142.437 137.13C141.27 136.233 141.069 134.682 141.969 133.511C142.794 132.437 144.42 132.134 145.587 133.031Z" fill="#FFCF2D"/>
<path d="M159.012 115.561C160.179 116.458 160.38 118.009 159.48 119.18C158.58 120.351 157.029 120.557 155.862 119.66C154.695 118.763 154.494 117.211 155.394 116.04C156.294 114.869 157.845 114.664 159.012 115.561Z" fill="#FFCF2D"/>
<path d="M172.362 98.1885C173.53 99.0856 173.73 100.637 172.83 101.808C171.93 102.979 170.379 103.185 169.212 102.288C168.045 101.391 167.844 99.8394 168.744 98.6682C169.644 97.4971 171.195 97.2915 172.362 98.1885Z" fill="#FFCF2D"/>
<path d="M185.788 80.7188C186.955 81.6158 187.155 83.167 186.255 84.3381C185.355 85.5093 183.805 85.7149 182.637 84.8179C181.47 83.9208 181.27 82.3697 182.17 81.1985C183.07 80.0274 184.62 79.8218 185.788 80.7188Z" fill="#FFCF2D"/>
<path d="M199.213 63.2491C200.38 64.1461 200.581 65.6973 199.681 66.8684C198.781 68.0396 197.23 68.2452 196.063 67.3481C194.895 66.4511 194.695 64.8999 195.595 63.7288C196.42 62.6552 198.046 62.352 199.213 63.2491Z" fill="#FFCF2D"/>
<path d="M106.357 213.876C107.525 214.773 107.725 216.324 106.825 217.495C105.925 218.667 104.375 218.872 103.207 217.975C102.04 217.078 101.84 215.527 102.74 214.356C103.64 213.185 105.287 213.054 106.357 213.876Z" fill="#FFCF2D"/>
<path d="M119.783 196.406C120.95 197.303 121.15 198.854 120.25 200.026C119.35 201.197 117.8 201.402 116.633 200.505C115.465 199.608 115.265 198.057 116.165 196.886C116.99 195.812 118.713 195.584 119.783 196.406Z" fill="#FFCF2D"/>
<path d="M133.133 179.034C134.3 179.931 134.5 181.482 133.6 182.654C132.7 183.825 131.15 184.03 129.983 183.133C128.815 182.236 128.615 180.685 129.515 179.514C130.415 178.343 132.063 178.212 133.133 179.034Z" fill="#FFCF2D"/>
<path d="M146.558 161.564C147.725 162.462 147.926 164.013 147.026 165.184C146.126 166.355 144.575 166.561 143.408 165.664C142.241 164.767 142.04 163.215 142.94 162.044C143.84 160.873 145.488 160.742 146.558 161.564Z" fill="#FFCF2D"/>
<path d="M159.983 144.094C161.151 144.991 161.351 146.542 160.451 147.713C159.551 148.884 158.001 149.09 156.833 148.193C155.666 147.296 155.466 145.745 156.366 144.574C157.191 143.5 158.913 143.272 159.983 144.094Z" fill="#FFCF2D"/>
<path d="M173.409 126.624C174.576 127.521 174.776 129.072 173.876 130.243C172.976 131.415 171.426 131.62 170.259 130.723C169.091 129.826 168.891 128.275 169.791 127.104C170.691 125.933 172.339 125.802 173.409 126.624Z" fill="#FFCF2D"/>
<path d="M186.759 109.252C187.926 110.149 188.126 111.7 187.226 112.871C186.326 114.042 184.776 114.248 183.609 113.351C182.441 112.454 182.241 110.903 183.141 109.732C184.041 108.561 185.689 108.43 186.759 109.252Z" fill="#FFCF2D"/>
<path d="M200.184 91.7823C201.351 92.6793 201.552 94.2305 200.652 95.4016C199.752 96.5728 198.201 96.7784 197.034 95.8813C195.867 94.9843 195.666 93.4332 196.566 92.262C197.466 91.0908 199.114 90.96 200.184 91.7823Z" fill="#FFCF2D"/>
<path d="M213.609 74.3126C214.777 75.2096 214.977 76.7607 214.077 77.9319C213.177 79.103 211.627 79.3086 210.459 78.4116C209.292 77.5146 209.092 75.9634 209.992 74.7923C210.817 73.7187 212.539 73.4903 213.609 74.3126Z" fill="#FFCF2D"/>
</g>
<defs>
<clipPath id="clip0_2234_9590">
<rect width="181.184" height="132.739" fill="white" transform="translate(0 138.662) rotate(-52.4584)"/>
</clipPath>
</defs>
</svg>
